{
  "accessors": [
    {
      "bufferView": 2,
      "componentType": 5126,
      "count": 25113,
      "max": [
        255.25999450683594,
        54.700401306152344,
        351.9939880371094
      ],
      "min": [
        -255.25999450683594,
        -103.24099731445313,
        -617.7760009765625
      ],
      "type": "VEC3"
    },
    {
      "bufferView": 2,
      "byteOffset": 301356,
      "componentType": 5126,
      "count": 25113,
      "max": [
        1.0,
        1.0,
        1.0
      ],
      "min": [
        -1.0,
        -1.0,
        -1.0
      ],
      "type": "VEC3"
    },
    {
      "bufferView": 1,
      "componentType": 5126,
      "count": 25113,
      "max": [
        0.9983720183372498,
        2.9970200061798096
      ],
      "min": [
        0.0006280000088736415,
        2.0033600330352783
      ],
      "type": "VEC2"
    },
    {
      "bufferView": 0,
      "componentType": 5125,
      "count": 50133,
      "type": "SCALAR"
    },
    {
      "bufferView": 2,
      "byteOffset": 602712,
      "componentType": 5126,
      "count": 1476,
      "max": [
        236.4340057373047,
        39.28499984741211,
        340.56298828125
      ],
      "min": [
        -236.5070037841797,
        -89.25650024414063,
        -437.6260070800781
      ],
      "type": "VEC3"
    },
    {
      "bufferView": 2,
      "byteOffset": 620424,
      "componentType": 5126,
      "count": 1476,
      "max": [
        0.9999386072158813,
        1.0,
        1.0
      ],
      "min": [
        -0.9999386072158813,
        -0.9898783564567566,
        -0.9960243105888367
      ],
      "type": "VEC3"
    },
    {
      "bufferView": 1,
      "byteOffset": 200904,
      "componentType": 5126,
      "count": 1476,
      "max": [
        0.9967439770698547,
        2.9909400939941406
      ],
      "min": [
        0.0006280000088736415,
        2.0033600330352783
      ],
      "type": "VEC2"
    },
    {
      "bufferView": 0,
      "byteOffset": 200532,
      "componentType": 5125,
      "count": 5325,
      "type": "SCALAR"
    },
    {
      "bufferView": 2,
      "byteOffset": 638136,
      "componentType": 5126,
      "count": 8,
      "max": [
        135.49000549316406,
        20.77739906311035,
        18.95039939880371
      ],
      "min": [
        -135.4429931640625,
        -0.0,
        -18.95039939880371
      ],
      "type": "VEC3"
    },
    {
      "bufferView": 2,
      "byteOffset": 638232,
      "componentType": 5126,
      "count": 8,
      "max": [
        0.23464183509349823,
        -0.9720526933670044,
        0.0
      ],
      "min": [
        -0.2347629964351654,
        -0.9973294138908386,
        0.0
      ],
      "type": "VEC3"
    },
    {
      "bufferView": 1,
      "byteOffset": 212712,
      "componentType": 5126,
      "count": 8,
      "max": [
        1.0,
        3.0
      ],
      "min": [
        0.0,
        2.0
      ],
      "type": "VEC2"
    },
    {
      "bufferView": 0,
      "byteOffset": 221832,
      "componentType": 5125,
      "count": 18,
      "type": "SCALAR"
    }
  ],
  "asset": {
    "extras": {
      "author": "doclusifer2 (https://sketchfab.com/doclusifer2)",
      "license": "CC-BY-4.0 (http://creativecommons.org/licenses/by/4.0/)",
      "source": "https://sketchfab.com/3d-models/destructor-pesado-finalizerheavy-destroy-e93804f2745b4d7c9eb8515c70945eb0",
      "title": "Destructor Pesado Finalizer/Heavy Destroy"
    },
    "generator": "Sketchfab-14.64.0",
    "version": "2.0"
  },
  "bufferViews": [
    {
      "buffer": 0,
      "byteLength": 221904,
      "name": "floatBufferViews",
      "target": 34963
    },
    {
      "buffer": 0,
      "byteLength": 212776,
      "byteOffset": 221904,
      "byteStride": 8,
      "name": "floatBufferViews",
      "target": 34962
    },
    {
      "buffer": 0,
      "byteLength": 638328,
      "byteOffset": 434680,
      "byteStride": 12,
      "name": "floatBufferViews",
      "target": 34962
    }
  ],
  "buffers": [
    {
      "byteLength": 1073008,
      "uri": "scene.bin"
    }
  ],
  "images": [
    {
      "uri": "textures/Material_1_baseColor.jpeg"
    },
    {
      "uri": "textures/Material_2_baseColor.jpeg"
    }
  ],
  "materials": [
    {
      "doubleSided": true,
      "name": "Material_1",
      "pbrMetallicRoughness": {
        "baseColorTexture": {
          "index": 0
        },
        "metallicFactor": 0.0,
        "roughnessFactor": 0.7621585769994558
      }
    },
    {
      "doubleSided": true,
      "name": "Material_2",
      "pbrMetallicRoughness": {
        "baseColorTexture": {
          "index": 1
        },
        "metallicFactor": 0.0
      }
    },
    {
      "doubleSided": true,
      "name": "Material_3",
      "pbrMetallicRoughness": {
        "baseColorFactor": [
          0.06995231943631565,
          0.06995231943631565,
          0.07143178661827053,
          1.0
        ],
        "metallicFactor": 0.0
      }
    }
  ],
  "meshes": [
    {
      "name": "Object_0",
      "primitives": [
        {
          "attributes": {
            "NORMAL": 1,
            "POSITION": 0,
            "TEXCOORD_0": 2
          },
          "indices": 3,
          "material": 0,
          "mode": 4
        }
      ]
    },
    {
      "name": "Object_1",
      "primitives": [
        {
          "attributes": {
            "NORMAL": 5,
            "POSITION": 4,
            "TEXCOORD_0": 6
          },
          "indices": 7,
          "material": 1,
          "mode": 4
        }
      ]
    },
    {
      "name": "Object_2",
      "primitives": [
        {
          "attributes": {
            "NORMAL": 9,
            "POSITION": 8,
            "TEXCOORD_0": 10
          },
          "indices": 11,
          "material": 2,
          "mode": 4
        }
      ]
    }
  ],
  "nodes": [
    {
      "children": [
        1
      ],
      "matrix": [
        -1.0,
        -1.6081226229577296e-16,
        2.2204460492503128e-16,
        0.0,
        1.6081226229577292e-16,
        -1.0,
        -4.440892098500626e-16,
        0.0,
        2.220446049250313e-16,
        -4.440892098500626e-16,
        1.0,
        0.0,
        0.0,
        0.0,
        0.0,
        1.0
      ],
      "name": "Sketchfab_model"
    },
    {
      "children": [
        2,
        3,
        4
      ],
      "name": "Destructor Pesado Finalizer.obj.cleaner.materialmerger.gles"
    },
    {
      "mesh": 0,
      "name": "Object_2"
    },
    {
      "mesh": 1,
      "name": "Object_3"
    },
    {
      "mesh": 2,
      "name": "Object_4"
    }
  ],
  "samplers": [
    {
      "magFilter": 9729,
      "minFilter": 9987,
      "wrapS": 10497,
      "wrapT": 10497
    }
  ],
  "scene": 0,
  "scenes": [
    {
      "name": "Sketchfab_Scene",
      "nodes": [
        0
      ]
    }
  ],
  "textures": [
    {
      "sampler": 0,
      "source": 0
    },
    {
      "sampler": 0,
      "source": 1
    }
  ]
}
